<svg xmlns="http://www.w3.org/2000/svg" viewBox="0 0 24 24" shape-rendering="crispEdges"><rect x="11" y="3" width="1" height="1" fill="#bb83ef"/><rect x="10" y="4" width="1" height="1" fill="#bb83ef"/><rect x="12" y="4" width="1" height="1" fill="#bb83ef"/><rect x="10" y="5" width="1" height="1" fill="#bb83ef"/><rect x="13" y="5" width="1" height="1" fill="#bb83ef"/><rect x="3" y="6" width="1" height="1" fill="#bb83ef"/><rect x="9" y="6" width="1" height="1" fill="#bb83ef"/><rect x="14" y="6" width="1" height="1" fill="#bb83ef"/><rect x="21" y="6" width="1" height="1" fill="#bb83ef"/><rect x="4" y="7" width="1" height="1" fill="#bb83ef"/><rect x="8" y="7" width="1" height="1" fill="#bb83ef"/><rect x="14" y="7" width="1" height="1" fill="#bb83ef"/><rect x="20" y="7" width="1" height="1" fill="#bb83ef"/><rect x="5" y="8" width="1" height="1" fill="#bb83ef"/><rect x="7" y="8" width="1" height="1" fill="#bb83ef"/><rect x="11" y="8" width="1" height="1" fill="#f1ffff"/><rect x="15" y="8" width="1" height="1" fill="#bb83ef"/><rect x="19" y="8" width="1" height="1" fill="#bb83ef"/><rect x="5" y="9" width="1" height="1" fill="#bb83ef"/><rect x="7" y="9" width="1" height="1" fill="#bb83ef"/><rect x="16" y="9" width="1" height="1" fill="#bb83ef"/><rect x="18" y="9" width="1" height="1" fill="#bb83ef"/><rect x="6" y="10" width="1" height="1" fill="#bb83ef"/><rect x="10" y="10" width="3" height="1" fill="#f1ffff"/><rect x="17" y="10" width="1" height="1" fill="#bb83ef"/><rect x="4" y="11" width="17" height="1" fill="#bb83ef"/><rect x="4" y="12" width="7" height="1" fill="#bb83ef"/><rect x="11" y="12" width="1" height="1" fill="#f1ffff"/><rect x="12" y="12" width="9" height="1" fill="#bb83ef"/><rect x="4" y="13" width="17" height="1" fill="#bb83ef"/><rect x="4" y="14" width="2" height="1" fill="#bb83ef"/><rect x="6" y="14" width="3" height="1" fill="#253649"/><rect x="9" y="14" width="6" height="1" fill="#bb83ef"/><rect x="15" y="14" width="3" height="1" fill="#253649"/><rect x="18" y="14" width="3" height="1" fill="#bb83ef"/><rect x="4" y="15" width="2" height="1" fill="#bb83ef"/><rect x="6" y="15" width="3" height="1" fill="#253649"/><rect x="9" y="15" width="6" height="1" fill="#bb83ef"/><rect x="15" y="15" width="3" height="1" fill="#253649"/><rect x="18" y="15" width="3" height="1" fill="#bb83ef"/><rect x="4" y="16" width="17" height="1" fill="#bb83ef"/><rect x="4" y="17" width="17" height="1" fill="#bb83ef"/><rect x="5" y="18" width="15" height="1" fill="#ff738b"/><rect x="5" y="19" width="15" height="1" fill="#ff738b"/></svg>
