<svg xmlns="http://www.w3.org/2000/svg" viewBox="0 0 24 24" shape-rendering="crispEdges"><rect x="9" y="2" width="1" height="1" fill="#f1ffff"/><rect x="10" y="2" width="3" height="1" fill="#eb9bff"/><rect x="13" y="2" width="1" height="1" fill="#253649"/><rect x="9" y="3" width="1" height="1" fill="#f1ffff"/><rect x="10" y="3" width="3" height="1" fill="#eb9bff"/><rect x="13" y="3" width="1" height="1" fill="#253649"/><rect x="9" y="4" width="1" height="1" fill="#f1ffff"/><rect x="10" y="4" width="3" height="1" fill="#eb9bff"/><rect x="13" y="4" width="1" height="1" fill="#253649"/><rect x="9" y="5" width="1" height="1" fill="#f1ffff"/><rect x="10" y="5" width="3" height="1" fill="#eb9bff"/><rect x="13" y="5" width="1" height="1" fill="#253649"/><rect x="9" y="6" width="1" height="1" fill="#f1ffff"/><rect x="10" y="6" width="3" height="1" fill="#eb9bff"/><rect x="13" y="6" width="1" height="1" fill="#253649"/><rect x="9" y="7" width="1" height="1" fill="#f1ffff"/><rect x="10" y="7" width="3" height="1" fill="#eb9bff"/><rect x="13" y="7" width="1" height="1" fill="#253649"/><rect x="9" y="8" width="4" height="1" fill="#eb9bff"/><rect x="13" y="8" width="1" height="1" fill="#253649"/><rect x="9" y="9" width="5" height="1" fill="#253649"/><rect x="4" y="11" width="3" height="1" fill="#f1ffff"/><rect x="11" y="11" width="1" height="1" fill="#bb83ef"/><rect x="11" y="12" width="1" height="1" fill="#bb83ef"/><rect x="17" y="12" width="3" height="1" fill="#f1ffff"/><rect x="11" y="13" width="1" height="1" fill="#bb83ef"/><rect x="9" y="15" width="1" height="1" fill="#f1ffff"/><rect x="10" y="15" width="3" height="1" fill="#eb9bff"/><rect x="13" y="15" width="1" height="1" fill="#253649"/><rect x="9" y="16" width="1" height="1" fill="#f1ffff"/><rect x="10" y="16" width="3" height="1" fill="#eb9bff"/><rect x="13" y="16" width="1" height="1" fill="#253649"/><rect x="9" y="17" width="1" height="1" fill="#f1ffff"/><rect x="10" y="17" width="3" height="1" fill="#eb9bff"/><rect x="13" y="17" width="1" height="1" fill="#253649"/><rect x="9" y="18" width="1" height="1" fill="#f1ffff"/><rect x="10" y="18" width="3" height="1" fill="#eb9bff"/><rect x="13" y="18" width="1" height="1" fill="#253649"/><rect x="9" y="19" width="1" height="1" fill="#f1ffff"/><rect x="10" y="19" width="3" height="1" fill="#eb9bff"/><rect x="13" y="19" width="1" height="1" fill="#253649"/><rect x="9" y="20" width="4" height="1" fill="#eb9bff"/><rect x="13" y="20" width="1" height="1" fill="#253649"/><rect x="9" y="21" width="5" height="1" fill="#253649"/></svg>
